<?xml version="1.0" encoding="utf-8"?>
<!-- Generator: Adobe Illustrator 24.2.0, SVG Export Plug-In . SVG Version: 6.00 Build 0)  -->
<svg version="1.1" id="Layer_1" xmlns="http://www.w3.org/2000/svg" xmlns:xlink="http://www.w3.org/1999/xlink" x="0px" y="0px"
	 viewBox="0 0 1000 1000" style="enable-background:new 0 0 1000 1000;" xml:space="preserve">
<style type="text/css">
	.st0{fill:#1D447D;}
	.st1{fill-rule:evenodd;clip-rule:evenodd;fill:#1D447D;}
	.st2{fill:#EC8123;}
	.st3{fill:#FFFFFF;}
	.st4{fill:#F19422;}
</style>
<g transform="matrix(.75939 0 0 .75939 99.9909 117.198)">
	<path class="st0" d="M426.9,542.5h9.3l21.1,38.5h0.1v-38.5h6.9v47.8h-8.8L433.9,551h-0.1v39.3h-6.8V542.5z"/>
	<path class="st0" d="M477.8,563.3c2.6-2.2,6.5-3.5,10.1-3.5c6.4,0,8.6,3.1,8.6,9.1c-2.5-0.1-4.3-0.1-6.9-0.1
		c-6.6,0-16.2,2.7-16.2,11.5c0,7.6,5.3,10.9,12.8,10.9c5.9,0,9.3-3.2,10.8-5.4h0.1v4.5h6c-0.1-1-0.3-2.9-0.3-6.9V569
		c0-9.5-4-14.5-14-14.5c-4.5,0-8.3,1.4-11.5,3.3L477.8,563.3z M496.6,576.7c0,5.2-3.4,9.2-9.7,9.2c-2.9,0-6.5-2-6.5-5.7
		c0-6.2,8.6-6.7,12.1-6.7c1.4,0,2.7,0.1,4.1,0.1V576.7z"/>
	<path class="st0" d="M532.4,560.6h-9.2v19.1c0,4,2.5,6.2,5.4,6.2c2,0,3.4-0.6,4.4-1.2v5.5c-1.4,0.4-3.4,1-5.5,1
		c-6.6,0-10.7-3.1-10.7-10.2v-20.4h-7.9v-5.2h7.9v-8.1l6.4-2v10.1h9.2L532.4,560.6L532.4,560.6z"/>
	<path class="st0" d="M548.2,540.3h-7.3v7.3h7.3V540.3z M541.3,590.3h6.4v-34.9h-6.4V590.3z"/>
	<path class="st0" d="M557.2,572.8c0,10,7.3,18.3,17.8,18.3c10.5,0,17.7-8.3,17.7-18.3c0-10.6-7.1-18.3-17.7-18.3
		C564.4,554.5,557.2,562.2,557.2,572.8 M564.1,572.8c0-6.6,4-13.1,11-13.1c6.8,0,10.9,6.4,10.9,13.1c0,6.2-3.3,13.1-10.9,13.1
		C567.4,585.9,564.1,579.1,564.1,572.8"/>
	<path class="st0" d="M601.4,555.4h6.2v5.5h0.1c1.9-4,6.6-6.4,11.4-6.4c9,0,13.1,5.6,13.1,15v20.8h-6.5v-18.1
		c0-8.2-1.8-12.1-7.4-12.5c-7.3,0-10.6,5.9-10.6,14.4v16.2h-6.4L601.4,555.4z"/>
	<path class="st0" d="M645.2,563.3c2.6-2.2,6.5-3.5,10.1-3.5c6.4,0,8.6,3.1,8.6,9.1c-2.5-0.1-4.3-0.1-6.8-0.1
		c-6.6,0-16.2,2.7-16.2,11.5c0,7.6,5.3,10.9,12.8,10.9c5.9,0,9.3-3.2,10.8-5.4h0.1v4.5h6c-0.1-1-0.3-2.9-0.3-6.9V569
		c0-9.5-4-14.5-14-14.5c-4.4,0-8.3,1.4-11.5,3.3L645.2,563.3z M664,576.7c0,5.2-3.3,9.2-9.7,9.2c-2.9,0-6.5-2-6.5-5.7
		c0-6.2,8.6-6.7,12.1-6.7c1.4,0,2.7,0.1,4.1,0.1L664,576.7z"/>
	<path class="st1" d="M682.1,538.9h6.4v51.4h-6.4V538.9z"/>
	<g>
		<path class="st0" d="M755.3,570.5c0,13.4-6.8,20.6-18.6,20.6c-11.8,0-18.6-7.2-18.6-20.6v-28h6.9v27.1c0,9.2,2.9,15.5,11.7,15.5
			c8.8,0,11.7-6.3,11.7-15.5v-27.1h6.9L755.3,570.5L755.3,570.5z"/>
		<path class="st0" d="M766.9,555.4h6.2v5.5h0.1c1.9-4,6.6-6.4,11.4-6.4c9,0,13.1,5.6,13.1,15v20.8h-6.4v-18.1
			c0-8.2-1.8-12.1-7.4-12.5c-7.3,0-10.6,5.9-10.6,14.4v16.2h-6.4V555.4z"/>
		<path class="st0" d="M816.5,547.6h-7.3v-7.3h7.3V547.6z M809.6,555.4h6.4v34.9h-6.4V555.4z"/>
		<path class="st0" d="M843.3,590.3h-7.7l-12.5-34.9h7.1l9.4,28.5h0.1l9.6-28.5h6.4L843.3,590.3z"/>
		<path class="st0" d="M888.8,582.4c-1.6,1.3-6.5,3.5-10.7,3.5c-6.1,0-11.5-4.7-11.5-11.6h24.9c0-11.2-3.8-19.7-15.4-19.7
			c-9.9,0-16.4,7.3-16.4,17.7c0,11.4,5.7,18.9,18.1,18.9c5.7,0,8.6-1.4,11-2.3V582.4z M866.6,569.5c0.5-4.5,3.1-9.7,9.4-9.7
			c5.5,0,8.7,4.4,8.7,9.7H866.6z"/>
		<path class="st0" d="M900.1,555.4h6v5.4h0.1c1.7-3.6,5.4-6.2,9.1-6.2c1.9,0,2.9,0.2,4.3,0.5v5.7c-1.2-0.5-2.5-0.6-3.6-0.6
			c-5.8,0-9.5,5.5-9.5,14.3v15.9h-6.4L900.1,555.4L900.1,555.4z"/>
		<path class="st0" d="M924.2,583.4c2.5,1.6,6.2,2.5,8,2.5c2.9,0,6.6-1.2,6.6-5c0-6.4-15.2-5.8-15.2-15.6c0-7.3,5.4-10.7,12.3-10.7
			c3,0,5.5,0.6,8,1.4l-0.6,5.6c-1.4-0.9-5.3-1.8-6.8-1.8c-3.3,0-6.2,1.4-6.2,4.2c0,7.1,15.1,5.1,15.1,16.2c0,7.5-6,10.9-12.2,10.9
			c-3.3,0-6.6-0.3-9.6-1.9L924.2,583.4z"/>
		<path class="st0" d="M961.1,547.6h-7.3v-7.3h7.3V547.6z M954.2,555.4h6.4v34.9h-6.4V555.4z"/>
		<path class="st0" d="M991,560.6h-9.2v19.1c0,4,2.4,6.2,5.4,6.2c2,0,3.4-0.6,4.4-1.2v5.5c-1.4,0.4-3.4,1-5.5,1
			c-6.7,0-10.8-3.1-10.8-10.2v-20.4h-7.9v-5.2h7.9v-8.1l6.5-2v10.1h9.2V560.6z"/>
		<path class="st0" d="M996.5,599.8c0.8,0.3,1.9,0.5,3,0.5c5.8,0,7.7-7.9,7.7-8.6c0-0.8-0.8-2.5-1.2-3.7l-11.9-32.6h7.1l9.4,28.9
			h0.1l9.6-28.9h6.5l-12.9,35.7c-2.4,6.7-4.9,14.4-13.4,14.4c-2.1,0-3.2-0.3-4.4-0.5L996.5,599.8z"/>
		<path class="st0" d="M424,653.8c0,10,7.3,18.3,17.8,18.3c10.5,0,17.7-8.3,17.7-18.3c0-10.6-7.1-18.3-17.7-18.3
			C431.2,635.5,424,643.2,424,653.8 M430.9,653.8c0-6.6,4-13.1,11-13.1c6.8,0,10.9,6.4,10.9,13.1c0,6.2-3.4,13.1-10.9,13.1
			C434.2,666.9,430.9,660,430.9,653.8"/>
		<path class="st0" d="M472.4,641.5h-8.2v-5.2h8.2v-3.2c0-8.5,2.2-14,11.7-14c1.6,0,3,0.2,4.3,0.4l-0.3,5.2c-0.8-0.3-2-0.4-3.1-0.4
			c-5.6,0-6.2,3.6-6.2,8.3v3.8h9.3v5.2h-9.3v29.7h-6.5L472.4,641.5L472.4,641.5z"/>
		<path class="st0" d="M534.3,630.6c-3.5-1.4-5.4-2-9-2c-3.8,0-8.4,1.4-8.4,6.4c0,9.2,20.5,7,20.5,22.8c0,10.2-7.9,14.2-17.5,14.2
			c-3.3,0-6.6-1-9.8-2l0.7-6.4c2.3,1,6.4,2.3,9.9,2.3c3.9,0,9.4-2.2,9.4-7.8c0-10.7-20.5-7.7-20.5-22.6c0-8.5,6.7-13,15.3-13
			c3.1,0,6.9,0.5,10.2,1.7L534.3,630.6z"/>
		<path class="st0" d="M553.9,628.5h-7.3v-7.3h7.3V628.5z M547,636.3h6.5v34.9H547V636.3z"/>
		<path class="st0" d="M565.3,636.3h6.2v5.6h0.1c1.9-4,6.6-6.4,11.4-6.4c9,0,13.1,5.6,13.1,15v20.7h-6.5v-18.1
			c0-8.2-1.8-12.1-7.4-12.5c-7.3,0-10.6,5.9-10.6,14.4v16.1h-6.4V636.3z"/>
		<path class="st0" d="M638,636.3h-6v5.2h-0.1c-1.9-3.8-5.3-6-11.5-6c-10.6,0-15.6,9.6-15.6,18.6c0,9,4.9,17.2,14.9,17.2
			c4.5,0,9-1.8,11.7-5.4h0.1v3.4c0,7.4-4,12-10.8,12c-4.7,0-7.7-0.9-12.6-3.1l-0.7,6c5.6,1.9,8.8,2.4,12.5,2.4
			c12.5,0,18-6.1,18-16.7L638,636.3z M621.3,666c-6,0-9.7-5.8-9.7-12.3c0-6,3.2-13,9.7-13c6.9,0,10.2,6.2,10.2,13.5
			C631.5,660.7,627.4,666,621.3,666"/>
		<path class="st0" d="M650.9,644.3c2.6-2.2,6.5-3.6,10.1-3.6c6.4,0,8.6,3.1,8.6,9.1c-2.5-0.1-4.3-0.1-6.8-0.1
			c-6.6,0-16.2,2.7-16.2,11.5c0,7.6,5.3,10.9,12.8,10.9c5.9,0,9.3-3.2,10.8-5.4h0.1v4.5h6c-0.1-1-0.3-2.9-0.3-6.9v-14.4
			c0-9.5-4.1-14.5-14-14.5c-4.4,0-8.3,1.4-11.5,3.3L650.9,644.3z M669.7,657.7c0,5.2-3.3,9.2-9.7,9.2c-2.9,0-6.5-2-6.5-5.7
			c0-6.2,8.6-6.7,12.1-6.7c1.4,0,2.7,0.1,4.1,0.1L669.7,657.7L669.7,657.7z"/>
		<path class="st0" d="M687,685.6h6.4v-19.2h0.1c2,3.2,5.5,5.6,11.6,5.6c10.5,0,15-9.3,15-18.9c0-9.4-4.9-17.7-15.1-17.7
			c-6.2,0-10.1,3.2-11.8,5.8h-0.1v-4.9H687L687,685.6z M713.4,653.6c0.1,5.5-2.7,13.2-9.6,13.2c-7.3,0-10.3-7.2-10.3-13
			c0-6.5,3.4-13.1,10.3-13.1C710.8,640.7,713.5,647.3,713.4,653.6"/>
		<path class="st0" d="M726.5,653.8c0,10,7.3,18.3,17.8,18.3c10.5,0,17.7-8.3,17.7-18.3c0-10.6-7.1-18.3-17.7-18.3
			C733.7,635.5,726.5,643.2,726.5,653.8 M733.4,653.8c0-6.6,4-13.1,11-13.1c6.8,0,10.9,6.4,10.9,13.1c0,6.2-3.4,13.1-10.9,13.1
			C736.7,666.9,733.4,660,733.4,653.8"/>
		<path class="st0" d="M770.7,636.3h6v5.4h0.1c1.7-3.6,5.4-6.3,9.1-6.3c1.9,0,2.9,0.2,4.2,0.5v5.8c-1.2-0.5-2.5-0.6-3.6-0.6
			c-5.8,0-9.5,5.5-9.5,14.2v15.9h-6.4L770.7,636.3z"/>
		<path class="st0" d="M824.1,663.4c-1.6,1.3-6.5,3.5-10.7,3.5c-6.1,0-11.5-4.7-11.5-11.6h24.9c0-11.2-3.8-19.7-15.4-19.7
			c-9.9,0-16.4,7.3-16.4,17.7c0,11.4,5.7,18.9,18.1,18.9c5.8,0,8.6-1.4,11-2.3V663.4z M801.9,650.4c0.5-4.5,3.1-9.7,9.4-9.7
			c5.6,0,8.7,4.4,8.7,9.7H801.9z"/>
		<path class="st0" d="M869.6,447.2c13.1,12.1,39,23.1,70.5,23.6c27.7,0.5,50-7.9,51.4-30.8c2.9-49.7-124.4-29.8-119.5-113.6
			c2.5-41.9,44.1-55.8,89-55.1c24.3,0.4,48.6,6.2,61.9,12.9l0.1,29.8c-16.2-11.1-38.9-18.2-57.6-18.6c-28.5-0.5-51.1,4.7-51.5,25.6
			c-0.8,43.5,127.7,33,122.8,116.2c-2.8,46.8-48.2,61.2-95.9,60.3c-27.4-0.4-54.2-5.9-71.1-14.6L869.6,447.2z"/>
		<path class="st0" d="M749.1,497.7c-59.1,0-93.2-26.6-93.2-81.2V277.8h44.3l0,138.7c0,34,16.3,54.6,48.8,54.6
			c32.5,0,48.8-20.6,48.8-54.6l0-138.7h44.3v138.7C842.3,471.2,808.3,497.7,749.1,497.7"/>
		<path class="st0" d="M583.9,277.8v156.3L482.3,288.9c-4.8-6.7-12.8-11.1-21.6-11.1H427v213.1h29.6V334.5L558,479.3
			c4.8,6.9,12.8,11.6,22,11.6h33.4V277.8L583.9,277.8z"/>
		<path class="st0" d="M376,498.3V277.8H16.8v220.7c0,0.2,0,0.8,0,1.7c0,10.4,2.3,65.5,46.6,135.4c48.4,76.4,128.3,100,131.7,101
			l1.2,0.3l1.2-0.3c3.4-1,83.5-24.6,132-101C377.7,559.4,376.1,500.8,376,498.3"/>
		<path class="st2" d="M185,304.3c-0.6-0.1-15.2-2.7-32.7-2.7c-13.8,0-26.3,4.2-31.8,6.3c-5.5-2.1-18-6.3-31.8-6.3
			c-17.5,0-32.1,2.6-32.7,2.7l-2,0.4v93l2.9-0.6c0.1,0,12.2-2.6,30-2.6c13.4,0,27.3,3.7,32.7,5.7l0.8,0.3l0.8-0.3
			c5.5-2,19.3-5.7,32.7-5.7c17.8,0,29.9,2.6,30,2.6l2.9,0.6v-93L185,304.3z"/>
		<path class="st3" d="M118.2,312.2c-5.5-2.1-16.9-5.7-29.4-5.7c-13.5,0-25.4,1.6-29.9,2.3v70.3c4.7-0.8,14.7-2.2,28.2-2.2
			c12,0,24.1,2.8,31.1,4.9L118.2,312.2L118.2,312.2z"/>
		<path class="st3" d="M152.4,306.5c-12.6,0-24.2,3.7-29.6,5.8v69.6c7-2.2,19.2-5,31.4-5c13.4,0,23.5,1.4,28.2,2.2v-70.3
			C177.8,308.1,165.9,306.5,152.4,306.5"/>
		<path class="st0" d="M72.1,318.3c-1.7,0.5-2.7,2-2.2,3.5c0.5,1.5,2.4,2.3,4.1,1.9c0.1,0,9-1.6,16.6-1.6c6.9,0,14.6,3.1,14.7,3.2
			c1.7,0.6,3.6-0.2,4.2-1.7c0.6-1.5-0.2-3.1-1.9-3.7c-0.4-0.1-8.9-3.5-17-3.5C82.1,316.4,72.5,318.2,72.1,318.3"/>
		<path class="st0" d="M72.1,332.2c-1.7,0.5-2.7,2.1-2.2,3.6c0.5,1.5,2.4,2.3,4.1,1.9c0.1,0,9-1.6,16.6-1.6c6.9,0,14.6,3.1,14.7,3.2
			c1.7,0.5,3.6-0.2,4.2-1.7c0.6-1.5-0.2-3.1-1.9-3.6c-0.4-0.1-8.9-3.5-17-3.5C82.1,330.4,72.5,332.1,72.1,332.2"/>
		<path class="st0" d="M72.1,346.2c-1.7,0.5-2.7,2.1-2.2,3.5c0.5,1.5,2.4,2.3,4.1,1.9c0.1,0,9-1.6,16.6-1.6c6.9,0,14.6,3.1,14.7,3.2
			c1.7,0.6,3.6-0.2,4.2-1.7c0.6-1.5-0.2-3.1-1.9-3.6c-0.4-0.1-8.9-3.5-17-3.5C82.1,344.3,72.5,346.1,72.1,346.2"/>
		<path class="st0" d="M72.1,360.1c-1.7,0.5-2.7,2.1-2.2,3.5c0.5,1.5,2.4,2.3,4.1,1.9c0.1,0,9-1.6,16.6-1.6c6.9,0,14.6,3.2,14.7,3.2
			c1.7,0.6,3.6-0.2,4.2-1.7c0.6-1.5-0.2-3.1-1.9-3.6c-0.4-0.1-8.9-3.5-17-3.5C82.1,358.3,72.5,360,72.1,360.1"/>
		<path class="st0" d="M169.3,318.3c1.7,0.5,2.7,2,2.2,3.5c-0.5,1.5-2.4,2.3-4.1,1.9c-0.1,0-9-1.6-16.6-1.6
			c-6.9,0-14.6,3.1-14.7,3.2c-1.7,0.6-3.6-0.2-4.2-1.7c-0.6-1.5,0.2-3.1,1.9-3.7c0.4-0.1,8.9-3.5,17-3.5
			C159.4,316.4,168.9,318.2,169.3,318.3"/>
		<path class="st0" d="M169.3,332.2c1.7,0.5,2.7,2.1,2.2,3.6c-0.5,1.5-2.4,2.3-4.1,1.9c-0.1,0-9-1.6-16.6-1.6
			c-6.9,0-14.6,3.1-14.7,3.2c-1.7,0.5-3.6-0.2-4.2-1.7c-0.6-1.5,0.2-3.1,1.9-3.6c0.4-0.1,8.9-3.5,17-3.5
			C159.4,330.4,168.9,332.1,169.3,332.2"/>
		<path class="st0" d="M169.3,346.2c1.7,0.5,2.7,2.1,2.2,3.5c-0.5,1.5-2.4,2.3-4.1,1.9c-0.1,0-9-1.6-16.6-1.6
			c-6.9,0-14.6,3.1-14.7,3.2c-1.7,0.6-3.6-0.2-4.2-1.7c-0.6-1.5,0.2-3.1,1.9-3.6c0.4-0.1,8.9-3.5,17-3.5
			C159.4,344.3,168.9,346.1,169.3,346.2"/>
		<path class="st0" d="M169.3,360.1c1.7,0.5,2.7,2.1,2.2,3.5c-0.5,1.5-2.4,2.3-4.1,1.9c-0.1,0-9-1.6-16.6-1.6
			c-6.9,0-14.6,3.2-14.7,3.2c-1.7,0.6-3.6-0.2-4.2-1.7c-0.6-1.5,0.2-3.1,1.9-3.6c0.4-0.1,8.9-3.5,17-3.5
			C159.4,358.3,168.9,360,169.3,360.1"/>
		<path class="st3" d="M322.3,630.5c-43.5,68.6-115.7,93.7-125.8,96.9c-10-3.2-82-28.2-125.5-96.9c-43.6-68.7-45.2-123.8-45.2-131.3
			c0-0.5,0-0.8,0-0.9v-78.1h341.7v77.9c0,0.1,0,0.4,0,0.9C367.5,506.7,365.9,561.8,322.3,630.5"/>
		<path class="st0" d="M351.3,483.4c-1.8-6.4-5-9.3-9.3-11.6c-11.9-6.3-27.5-1.9-41.1,2.8c-10.3,3.5-13.4,4.6-25.1,6.4
			c-8.8,1.4-38.3,5.2-47.6-2.5c-1.3-1.1-2.7-3.5-2.8-5.1c-0.3-3.2,1.2-7,2.3-8.3c2.4-2.6,7.8-3.8,16.8-3.8l22.8,0.4
			c1.4,1.8,5.1,4.8,14.3,6.8c14.7,3.2,30.9-2,30.9-2s-2.7-0.5-4.9-2.2c-2-1.5-1.8-3.7-1.8-3.7s3.2,1.6,8,1.4c5.9-0.2,8.6-3,14.1-4.4
			c5.5-1.4,11.6-0.2,11.6-0.2s-5.6-5.9-11.1-7c-5.5-1-12.3,0.4-12.3,0.4s1.7-0.8,3.8-2.6c1.6-1.5,2-4,2-4s-6.6,2.5-13.3,2.2
			s-6.2-2.8-19.2-3.1c-9.8-0.3-18,5.6-21.3,8.4c-10.5-0.7-18.8-1.1-23.6-1.1c-13.4,0-21.1,2.2-25.8,7.3c-3.9,4.3-5.7,9.8-5.1,16.5
			c0.4,5.2,2.7,9.5,6.9,12.9c12.5,10.3,45.9,7.2,57.8,5.1c13.3-2.3,17.2-3.4,24.9-5.9c0,0,0.4-0.1,0.4-0.1c5.9-2,24-8,31.6-4
			c1.5,0.8,2.6,2.3,3.2,4.7c0.3,1.1,0.4,2,0.4,2.9c0,1.6-0.5,2.9-1.5,4.1c-6.9,8.4-32.9,9.9-44.1,10.5c-1.2-0.3-8.8-2-18.8-2
			c-6.7,0-12.3,0.4-18.2,0.8c-10.8,0.8-22,1.7-40.6-0.5c-8.6-1-16.7-2.6-22.8-4.4c-0.3-2.3-1.4-4.5-3.7-7.1
			c4.5,1.4,10.3-3.5,11.9-5.9c0-0.2-7.9-2.3-8.4-7.5c0-0.2,5.6,0.5,7.9-7.2c-5.6-3-3.8-4.2-6.5-7.9c-2.4-3.3-5.8-5-10-4.9
			c1.7-0.2,1.9,0,3.7-0.9c2.4-1.2,4.1-4.6,6.5-4.4c-4.9-7.6-18-8.6-23.4-7c1.4-1.7,3.5-3.7,3.6-6c-7.2,2-14.3-1.8-21.6-0.4
			c-6.1,1.1-9.5,3.6-11.4,9.3h-0.3c-1.9-5.8-5.4-8.2-11.4-9.3c-7.3-1.4-14.4,2.4-21.6,0.4c0,2.4,2.2,4.3,3.6,6
			c-5.4-1.6-18.5-0.6-23.4,7c2.4-0.1,4.1,3.2,6.5,4.4c2.2,1.1,2.6,0.9,3.7,0.9c-4.2-0.1-7.7,1.6-10,4.9c-2.7,3.8-0.9,4.9-6.5,7.9
			c2.3,7.7,8,7.1,8,7.2c-0.5,5.1-8.4,7.2-8.4,7.5c1.6,2.4,7.4,7.3,11.9,5.9c-3.7,4.1-4.3,7.2-3.4,11.4c-5.7-4.3-11.3-9.1-14.3-13
			c-0.7-1-2.9-8.4-4.4-13.2l-1.2-4l-0.6-2.1c-1.8-6.6-3.5-12-6.5-12.8c-1.6-0.4-3.1-0.5-4.4-0.4c-1-1.6-2.5-3.3-4.1-3.8
			c-3.5-1-5.1-0.3-5.1-0.3s2.8,2,3.7,4.1c0.2,0.5,0.4,1,0.5,1.5c-0.6,0.4-1.2,0.7-1.7,1.1l-0.3,0.2c-0.4,0.3-0.8,0.7-1.4,1.1
			c-0.2-0.1-0.5-0.1-0.7-0.2c-3.6-0.5-5.1,0.6-5.1,0.6s1.9,1,3.4,2.3c-1.2,1.7-2.3,4-2.3,6.7c0,0.3,0,0.5,0.1,0.8
			c-3.4,0.3-4.7,1.5-4.7,1.5s3.3,0.9,4.9,2.5c0.2,0.2,0.3,0.4,0.5,0.5c-0.2,0.2-0.3,0.3-0.3,0.3c-0.7,1.1-1,2.3-1,3.6
			c0,3,1.7,6.2,4,8.3c0,0,6.1,5.1,6.7,5.6c2.4,5.4,5.1,10.2,6.9,12.2c0.6,0.7,4.3,7.1,8.3,14c0.5,0.9,1.1,1.8,1.6,2.8
			c0.9,4.2,1.8,9.4,2.3,13.5c0.8,7.4,0,15.6,0,15.6s4.8-0.2,7-3.4c0-0.1,1.8,5.1,1.5,11c-0.2,4.3-1.4,10.3-1.4,10.3s4.7-2.5,8.2-5.6
			c1.8-1.6,3.6-4.1,4.6-5.8c3.9,2.5,14.9-1.5,20.4-3.7c1.1,2.2,2.6,4.6,4.6,7.3c0.8-3.3,4.3-5,6-7.6c0.5,0,1,0,1.5,0
			c0.2,3.6-0.8,7,2.6,13.8c1,1.9,5.7,9,9.2,12.6c-1.3,6.1-3.8,17.3-6.4,26.5c-2.9,10.5-5.3,15.7-6.7,18.1
			c-3.9,0.2-11.1,0.4-13.4,0.3c-5.5-0.3-9.5,0.9-12.1,3.4c-0.2,0.2-0.3,0.4-0.5,0.6c-1.9,0.3-4.1,0.9-5.3,2.2
			c-2.4,2.7-2.4,4.5-2.4,4.5s3-1.7,5.2-1.7c0.2,0,0.3,0,0.5,0v0.5c0,0.5,0.3,1.4,0.8,2.4c-0.4,0.3-0.7,0.6-1,0.9
			c-2.2,2.9-2.1,4.7-2.1,4.7s2.8-1.9,5.1-2.1c0.7,1.1,1.5,2.3,2.3,3.4c-0.1,0.1-0.2,0.2-0.3,0.3c-2,3-1.7,4.9-1.7,4.9
			s2.2-1.7,4.3-2.3c0.7,0.8,1.4,1.6,2.1,2.1c3.3,2.9,11.5,1,21.9-1.7l6.4-1.6c4.5-0.8,7.4-2.7,9.4-6.1c0.5-0.8,0.9-2.1,1.6-4.2
			l0.6-1.8c1.4-4,2.6-6.6,5.4-11.2c0.1-0.1,2.9-4.6,6.7-10.8c3.4-2.8,7.4-6,10.3-8c4.5-3,13.4-7.6,13.4-7.6s-2.4-3.9-5.9-4.4
			c-0.1,0,4.5-4.7,8.4-6.3c4.3-1.9,9.9-2.9,9.9-2.9s-2-4.2-5.2-6.2c1.3-0.4,2.5-1.2,4-2.2c7.5-4.9,13.1-4.7,18.4-3.3
			c0.2-3.4-0.7-5.5-3.6-7.5c2.5-1,5-2,7.8-2.6c1.7,3,3.7,6.2,4.5,7.5c3.9,5.5,9.7,13.1,14.5,17.8c0.1,0.1,0.2,0.3,0.2,0.6
			c0,2-2.4,7.5-3.8,10.6l-1.2,2.7c0,0-4.8,11.2-6.1,14.5c-2.8,0.2-10.8,0.6-13.6,0.5c-5.3-0.2-9.3,0.9-11.7,3.3
			c-0.3,0.3-0.6,0.6-0.8,1c-2,0.4-4.4,1.1-5.6,2.6c-2.2,2.8-2.1,4.7-2.1,4.7s2.9-1.9,5.1-2c0.4,0,0.7,0,1,0c0.1,0.6,0.4,1.5,0.9,2.5
			c-0.5,0.4-1,0.8-1.3,1.3c-2,3-1.7,4.8-1.7,4.8s2.7-2.1,5-2.5c0.1,0,0.2,0,0.2,0c0.5,0.8,1.1,1.7,1.7,2.5c-0.2,0.2-0.4,0.4-0.6,0.7
			c-2,3-1.7,4.9-1.7,4.9s2.6-2,4.8-2.4c0.7,0.8,1.4,1.5,2,2c3.2,2.8,9.9,1.1,19.1-1.5l6.5-1.7c4.4-0.8,7.2-2.6,9.2-5.9l1.7-3.7
			c0.8-1.9,1.7-4,2.4-5.1c1.1-1.7,2.2-3.7,3.3-5.9c1.5-1.3,3-2.5,4-3.3c2.9-2.2,10.4-6.3,10.4-6.3s-1.5-3.3-4.5-3.6
			c0,0,3-3.3,6.5-5.4c2.5-1.5,7.6-2.4,7.6-2.4s-3.5-3-6.1-4.1c-1.1-0.5-2.5-0.8-3.8-1c-0.2-1.5-1-3.2-2.4-5.4
			c-2.6-4,1.2-12.7,3.9-17.6c1.4,1.9,3.9,5.2,8,9.8c0,0,13.2,14.5,16.2,17.7c-0.6,2.3-2.4,9.5-5.4,17.5c-2.1,5.8-5.1,11.8-6.7,14.8
			c-3.2,0.2-10.4,0.5-13.1,0.4c-5.3-0.3-9.3,0.9-11.7,3.3c-0.4,0.4-0.7,0.8-1,1.3c-1.8,0.4-3.8,1.2-4.8,2.5
			c-2.2,2.9-2.1,4.7-2.1,4.7s2.2-2,5.1-2.1c0.1,0,0.3,0,0.4,0c0.1,0.6,0.5,1.5,1,2.4c-0.5,0.4-1,0.8-1.3,1.3c-2,3-1.7,4.9-1.7,4.9
			s2.7-2.1,4.9-2.5c0.1,0,0.2,0,0.2,0c0.7,1.1,1.5,2.1,2.2,3.2c0,0,0,0,0,0c-2,3-1.7,4.8-1.7,4.8s2-1.6,4-2.2
			c0.6,0.6,1.1,1.2,1.7,1.7c3.2,2.8,9.9,1.1,19.1-1.5l6.5-1.7c4.4-0.8,7.2-2.6,9.2-5.9c0.9-1.5,4.9-10.9,6-13.6
			c2-4.9,4.2-9.9,6.4-14.5c1.1-0.9,2.1-1.7,2.9-2.3c3.6-2.5,11.4-6.9,11.4-6.9s-1.5-3.3-4.5-3.6c0,0,3-3,6.1-4.9
			c2.8-1.8,8-2.8,8-2.8s-3.7-2.8-6.4-4c-1.6-0.7-3.8-1.1-5.3-1.3c-0.5-2.2-1.6-2.9-3.2-3.8c-1.5-0.8-3.5-1.8-6.6-5.4
			c-4-4.7-4.6-13.6-4.6-22.5c0-2,0-3.9,0.1-5.8l0-8.6c-0.3-10.1-1.7-17.1-3.1-21.7c13.1-1.2,37.2-3.8,47-15.9
			c3-3.6,4.5-7.9,4.5-12.5C352.2,487.8,351.9,485.6,351.3,483.4"/>
		<path class="st4" d="M257.2,592.9c1.7-1.6,2.6-2.5,2.6-3.7c0-1-0.6-2.2-1.9-4.2c-1-1.5-1.4-3.3-1.4-5.3c0-6.5,4.3-14.2,6-17.1
			c-0.5-0.6-1.2-1.5-2-2.7c-0.5-0.3-0.8-0.6-1.1-0.7c-1.1-0.8-3.9-3.2-5.7-5.5c-0.2-0.3-0.5-0.7-0.8-1.2c-3.6-0.1-12.1-0.4-20.9,2.3
			c2.7,1.5,3.3,3.6,3.4,6.1c-5.8-1.3-10.6-1.3-15-0.7c1.5,2.6,3.1,5.2,3.8,6.2c3.8,5.4,9.5,12.8,14.1,17.4c0.7,0.7,1.1,1.7,1.1,2.9
			c0,2.8-1.8,6.9-4,12l-1.2,2.7l-6.9,16.3l-1,0.1c-0.5,0-11.4,0.7-15,0.5c-3.9-0.2-6.9,0.5-8.7,1.9c0.2,0.7,0.4,1.7,0.1,2.7
			c-0.4,1.2-1.1,1.8-1.7,2.2c0.1,0.2,0.2,0.4,0.3,0.6c2.1-0.7,4.2-0.9,4.2-0.9s1.2,1.6,0.7,3.5c-0.4,1.5-1.1,2.3-1.6,2.7
			c0.1,0.2,0.3,0.4,0.4,0.6c2.4-1,5.1-1.2,5.1-1.2s1.2,1.9,0.8,3.9c-0.2,1.1-0.8,1.7-1.3,2.1c2.9,0.9,10.5-1.2,15.2-2.6l6.8-1.8
			c3.5-0.7,5.5-1.9,7-4.4l1.5-3.3c0.9-2,1.8-4.3,2.7-5.6c2.1-3.3,4.5-8.2,6.8-12.9C252.7,600,255.3,594.7,257.2,592.9"/>
		<path class="st4" d="M126.5,550.8c0,0.1,0,0.1,0,0.2h0.1C126.6,550.9,126.6,550.9,126.5,550.8"/>
		<path class="st2" d="M112.4,531.9c-2.1,3.2-6,4.7-10.9,5.3c0.9-5,0.1-8.4-1.7-12.3c-1.6-3.5-6-10.3-7.3-14.1
			c-0.4-1.1-0.7-2.1-1-3.1c-6.9-5-14.5-11.2-18.4-16.2c-0.9-1.2-2.3-5.5-4.9-14.3l-1.2-4l-0.6-2.2c-1.8-6.5-3.2-10-4.1-10.4
			c-0.7-0.2-1.3-0.2-1.9-0.3v0c0,0-0.3,2-3.6,1.8c-0.8,0-1.4-0.3-1.9-0.6c-0.3,0.2-0.6,0.4-0.8,0.6l-0.3,0.2
			c-0.2,0.1-0.3,0.3-0.5,0.4c2,1.8,3.4,4.1,3.4,4.1s-0.7,2-3.3,2.5c-1.8,0.3-3.3-1-3.3-1s0-0.6-0.2-1.5c-0.8,1.5-1.1,3.2-0.7,5.2
			c2.6,1.3,4.8,3.7,4.8,3.7s-0.1,1.9-2.7,3.2c-1,0.5-2,0.2-2.7-0.1c-0.3,2,0.8,4.7,2.8,6.6l7.2,5.9l0.2,0.4c2.3,5.1,5,10,6.5,11.7
			c0.6,0.7,2.7,4.3,8.7,14.5c7.9,13.5,19.8,34,22.8,37.4c1.2,1.1,9.3-0.8,17.3-4C111,543.6,113.5,538.8,112.4,531.9"/>
		<path class="st2" d="M348.2,484.3c-1.5-5.3-3.9-7.5-7.7-9.5c-10.8-5.7-25.5-1.5-38.5,3c-11.1,3.8-14.1,4.7-25.6,6.5
			c-11.7,1.8-40.1,5.1-50.2-3.3c-2-1.7-3.8-4.9-4-7.3c-0.3-4,1.4-8.8,3.2-10.8c3.1-3.4,9-4.9,19.2-4.9c0,0,15.3,0.2,23.7,0.4
			l1.8-1.6l-1.7-1.9c-10.6-0.7-18.9-1.1-23.7-1.1c-12.3,0-19.3,1.9-23.4,6.3c-3.3,3.6-4.7,8.3-4.2,14c0.4,4.3,2.3,7.9,5.7,10.7
			c10.6,8.8,41.7,6.7,55.1,4.4c13-2.3,16.9-3.3,24.4-5.8l0.4-0.2c6.9-2.3,25.3-8.5,34.2-3.8c2.4,1.3,4,3.5,4.9,6.7
			c1.1,4,0.6,7.2-1.6,9.9c-7.9,9.6-33.1,11-46.7,11.7l-0.3,0l-0.2-0.1c-0.1,0-8-1.9-18.3-2c-6.6,0-12.1,0.4-18,0.8
			c-11,0.8-22.4,1.7-41.3-0.5c-8.4-1-16.3-2.5-22.5-4.3c-0.4,2.5-1.4,5.4-2.7,9.2c-1.3,3.9-5.7,10.7-7.3,14.1
			c-1.8,3.9-2.7,7.3-1.8,12.3c-5-0.6-8.8-2.1-10.9-5.3c-1.5,9.3,3.8,14.9-7.3,29.9c-1.1-4.5-7.3-6-6.8-11.1
			c-1.9,5.3,1.2,8.4-3.3,17.3c-1.1,2.2-7.3,11.4-10.7,14.1c-1.4,6.4-3.8,17.1-6.2,25.9c-3.4,12-6.1,17.5-7.5,19.7l-0.4,0.7l-0.9,0
			c-3.6,0.2-12,0.5-14.6,0.4c-3.7-0.2-6.6,0.4-8.5,1.6c0.2,0.9,0.3,2.2-0.3,3.2c-0.7,1.1-1.6,1.6-2.1,1.8c0.1,0.2,0.2,0.4,0.3,0.7
			c2.4-0.7,4.8-0.7,4.8-0.7s1,2,0,4.4c-0.4,1-1,1.5-1.4,1.7c0.2,0.3,0.5,0.7,0.7,1c2.5-1.1,5.5-1.4,5.5-1.4s1.1,1.5,0.4,4.6
			c-0.2,1-0.8,1.4-1.2,1.7c3.3,1,12.7-1.5,18-2.9l6.7-1.6c3.6-0.7,5.7-1.9,7.3-4.6c0.3-0.5,0.9-2.1,1.3-3.5c0,0,0.6-1.8,0.6-1.9
			c1.5-4.2,2.7-7,5.7-11.8c6.8-10.9,27-44,27.8-46.6c0-0.1,0-0.3,0-0.5c0-1.8-0.9-5.6-1.5-8.1l-0.4-1.6c0,0,65.4-19.1,69.2-20.2
			c-1.3-2.3-4-7-4-7l2.4-2.2c0.2,0.2,5.2,3.8,8,6.6c2.4,2.4,4.8,6.2,7.3,10.1l1.3,2c2.8,4.4,5.6,7.7,5.6,7.8l0.1,0.1l0.1,0.1
			c0,0,2.2,3.8,9,11.5l17.3,18.9l-0.2,0.8c0,0.1-2.1,8.9-5.7,18.7c-2.4,6.5-5.9,13.4-7.3,16l-0.4,0.8l-0.9,0
			c-3.3,0.2-11.4,0.6-14.3,0.5c-3.7-0.2-6.5,0.4-8.4,1.6c0.3,0.9,0.5,2.2,0,3.2c-0.6,1.2-1.4,1.8-1.9,2.1c0.1,0.1,0.2,0.3,0.3,0.5
			c2.2-0.7,4.2-0.9,4.2-0.9s1,1.7,0.7,3.9c-0.2,1.5-1,2.1-1.6,2.4c0.2,0.3,0.4,0.6,0.6,0.9c2.6-1.3,5.9-1.6,5.9-1.6s1.1,1.5,0.7,3.8
			c-0.2,1.1-0.9,1.8-1.5,2.2c3.4,0.4,10.1-1.5,14.4-2.8l6.8-1.8c3.5-0.7,5.5-1.9,7-4.4c0.7-1.1,4.4-9.7,5.8-13.1
			c4.1-10.1,10.1-22.8,14.1-29.6l2.2-3.4c1.3-1.9,2.4-3.6,2.3-4.7c-0.1-1.5-0.2-1.6-1.6-2.3c-1.6-0.8-4.1-2.1-7.6-6.2
			c-5.6-6.6-5.5-19.4-5.3-30.6l0-8.4c-0.3-11.1-2.1-18.5-3.5-22.7l-0.7-2l2.1-0.2c12.1-1.1,37.3-3.3,46.8-14.9
			C348.8,495.8,349.8,490.3,348.2,484.3"/>
		<path class="st3" d="M282.8,353.8c1.4,1.9,2.6,3.9,3.5,6.1c-1.1,0.2-2.3,0.3-3.5,0.3s-2.4-0.1-3.5-0.2
			C280.2,357.7,281.4,355.7,282.8,353.8"/>
		<path class="st2" d="M268.3,353.1c-2.6-2-4.8-4.5-6.4-7.4c0,0,0.1,0,0.1,0c3.3,0,6.5,0.7,9.4,1.9
			C270.2,349.4,269.2,351.2,268.3,353.1 M247.5,350.6c3.6,7.6,9.6,13.9,17.1,17.8c0,0.4,0,0.9,0,1.3c0,8.2,2.5,15.8,6.9,22.1
			c-3,1.3-6.2,1.9-9.4,1.9c-13.3,0-24.1-10.8-24.1-24C238,362,241.7,355,247.5,350.6 M303.7,345.7l0.1,0c-1.6,2.9-3.8,5.4-6.4,7.3
			c-0.9-1.9-1.9-3.7-3.1-5.4C297.2,346.4,300.4,345.7,303.7,345.7 M262,330.7c-1,0-2,0.1-3,0.2c1.5-11.9,11.5-20.9,23.9-20.9
			c12.2,0,22.3,9.2,23.8,21l-3-0.2c-7.4,0-14.5,2.1-20.8,6C276.8,332.8,269.6,330.7,262,330.7 M301.1,368.5
			c7.4-3.9,13.4-10.2,17.1-17.9c6,4.5,9.6,11.5,9.6,19.2c0,13.3-10.8,24-24.1,24c-3.3,0-6.5-0.7-9.4-1.9c4.5-6.5,6.9-14.1,6.9-22.1
			L301.1,368.5z M279.8,372.8l3,0.2c1,0,2-0.1,3-0.2c-0.4,3.2-1.4,6.2-3,8.9C281.3,379.1,280.2,376.1,279.8,372.8 M321.9,335.2
			c0-0.4,0.1-0.8,0.1-1.3c0-21.6-17.5-39.1-39.1-39.1c-21.6,0-39.1,17.5-39.1,39.1l0,1.3c-12.4,6.6-20.8,19.6-20.8,34.6
			c0,21.6,17.5,39.1,39.1,39.1c7.4,0,14.6-2.1,20.8-6c6,3.8,13.1,6,20.8,6c21.5,0,39.1-17.5,39.1-39.1
			C342.7,355.3,334.6,341.9,321.9,335.2"/>
		<path class="st3" d="M290.3,372.5c2.2-0.4,4.3-1.1,6.4-1.8c-0.1,7-2.3,13.7-6.4,19.3c-1.8-1.2-3.4-2.6-4.7-4.2
			C288.2,381.8,289.8,377.3,290.3,372.5"/>
		<path class="st3" d="M282.8,299.5c19.1,0,34.7,15.6,34.7,34.7c0,19.1-15.6,34.7-34.7,34.7l-3.2-0.2c0.1-2.1,0.5-4.2,1.1-6.2l2,0.1
			c15.7,0,28.4-12.8,28.4-28.4c0-15.7-12.8-28.4-28.4-28.4c-14.9,0-27,11.2-28.3,25.9c-2.2,0.4-4.3,1.1-6.4,1.9
			C248.5,314.7,263.9,299.5,282.8,299.5"/>
		<path class="st3" d="M303.6,335.3l3.2,0.2c-0.1,2.1-0.5,4.2-1.2,6.2l-2-0.1c-4.2,0-8.3,1-12.1,2.8c-1.5-1.7-3.1-3.3-4.8-4.7
			C291.9,336.8,297.7,335.3,303.6,335.3"/>
		<path class="st3" d="M262,404.7c-19.1,0-34.7-15.6-34.7-34.7c0-19.1,15.6-34.7,34.7-34.7c13.8,0,26,7.9,31.6,20.4
			c-1.9,0.9-3.9,1.7-6,2.1c-4.7-9.9-14.6-16.2-25.6-16.2c-15.7,0-28.4,12.8-28.4,28.4s12.8,28.4,28.4,28.4c4.2,0,8.4-1,12.2-2.8
			c1.5,1.7,3.1,3.3,4.8,4.7C273.8,403.2,268,404.7,262,404.7"/>
		<path class="st3" d="M257.2,346.4c2.1,4.4,5.4,8.2,9.4,11c-0.7,2.1-1.2,4.3-1.6,6.5c-6.1-3.6-10.8-9-13.8-15.4
			C253.1,347.6,255.1,346.9,257.2,346.4"/>
		<path class="st3" d="M303.6,404.7c-19.1,0-34.7-15.6-34.7-34.7c0-7.3,2.2-14.2,6.4-20.1c1.8,1.2,3.4,2.6,4.8,4.2
			c-3.2,4.7-4.9,10.2-4.9,15.9c0,15.7,12.8,28.4,28.4,28.4c15.7,0,28.4-12.8,28.4-28.4c0-9.4-4.6-18-12.2-23.3
			c0.7-2.1,1.2-4.3,1.6-6.5c10.4,6.2,16.9,17.6,16.9,29.8C338.4,389.1,322.8,404.7,303.6,404.7"/>
		<path class="st2" d="M167,473.4c2.1-1.4,7-5.5,4.3-10.4c-2.8-5.2-9.2-3.1-11.1-2.3c-0.3-0.3-14.4-6.4-14.6-6.3
			c0.1-0.1-5.5,6.5-5.5,6.5s-5.6-6.6-5.5-6.5c-0.2-0.1-14.3,6-14.6,6.3c-1.9-0.8-8.3-2.9-11.1,2.3c-2.6,4.9,2.3,9,4.3,10.4
			c0,0.1,0,0.1,0,0.1s-4.6,8.2-4.6,8.1c0.1-0.1,13.3,16.1,13.3,16.1c0,0,0,10.4,0,10.5c0,0,5.3,3.5,5.7,3.7c0.8,4,1.1,6,2,8.2
			c0.3,0.7,5.4,2.2,10.3,2.2h0.4c4.9-0.1,10-1.6,10.3-2.2c0.9-2.2,1.2-4.2,2-8.2c0.4-0.1,5.7-3.7,5.7-3.7c0,0,0-10.4,0-10.5
			c0,0,13.3-16.2,13.3-16.1c0.1,0.1-4.6-8.1-4.6-8.1S167.1,473.5,167,473.4"/>
		<path class="st0" d="M133.5,474.1L133,481l-11.9-6.8L133.5,474.1z"/>
		<path class="st0" d="M148.8,481.1c0.1,0.5,1.9,16.5,1.9,16.5s-8.7,4.7-9.1,4.9c0,0.5-0.1,5.5-0.1,5.9c0.4,0.3,2,1.5,3.6,2.2
			c2.9,1.2,5.9,0.5,5.9,0.5l0.7-0.2l-0.6,2.2l-0.3,0c-0.1,0-3.4,0.6-6.1-0.2c-2.3-0.7-3.5-1.6-3.9-1.9h-1.4c-0.3,0.2-1.6,1.1-4,1.9
			c-2.7,0.8-6,0.2-6.1,0.2l-0.3,0l-0.6-2.2l0.7,0.2c0,0,3,0.7,5.9-0.5c1.6-0.7,3.2-1.9,3.6-2.2c0-0.4,0-5.6,0-6
			c-0.4-0.2-9.1-6.4-9.1-6.4s15.4,0,16.2,0v-21.6l12.8-0.1l1.6,0C160.3,474.3,149.3,480.8,148.8,481.1"/>
	</g>
</g>
</svg>
