<?xml version="1.0" standalone="no"?>
<!DOCTYPE svg PUBLIC "-//W3C//DTD SVG 20010904//EN"
 "http://www.w3.org/TR/2001/REC-SVG-20010904/DTD/svg10.dtd">
<svg version="1.0" xmlns="http://www.w3.org/2000/svg"
 width="1024.000000pt" height="1022.000000pt" viewBox="0 0 1024.000000 1022.000000"
 preserveAspectRatio="xMidYMid meet">

<g transform="translate(0.000000,1022.000000) scale(0.100000,-0.100000)"
fill="#000000" stroke="none">
<path d="M4905 10209 c-1611 -61 -3086 -882 -4018 -2235 -182 -265 -404 -681
-521 -980 -168 -429 -278 -877 -333 -1359 -14 -125 -18 -239 -18 -520 0 -367
7 -475 46 -750 205 -1430 1021 -2712 2239 -3521 573 -380 1223 -642 1895 -764
342 -61 492 -74 910 -74 388 -1 463 4 755 45 1328 188 2544 916 3360 2010 498
667 828 1460 950 2279 73 497 73 1048 0 1533 -127 837 -452 1613 -960 2292
-278 371 -658 752 -1035 1035 -799 600 -1817 969 -2775 1005 -80 3 -181 7
-225 9 -44 1 -165 -1 -270 -5z m435 -119 c722 -35 1369 -202 2000 -516 708
-353 1317 -864 1795 -1509 427 -576 731 -1260 875 -1972 103 -512 123 -1102
54 -1638 -108 -846 -443 -1666 -961 -2353 -199 -263 -526 -608 -768 -811 -702
-586 -1503 -957 -2388 -1106 -300 -50 -437 -60 -827 -60 -383 0 -472 6 -770
51 -1375 209 -2606 996 -3385 2164 -489 735 -761 1531 -826 2425 -15 202 -6
678 16 874 95 859 399 1663 888 2348 868 1219 2214 1983 3687 2093 133 10 192
13 350 18 30 1 147 -3 260 -8z"/>
<path d="M5204 9571 c-58 -36 -81 -127 -48 -196 18 -39 37 -52 118 -86 68 -28
96 -58 96 -106 0 -25 -8 -43 -30 -65 -28 -27 -36 -30 -76 -25 -57 6 -92 38
-100 89 -5 28 -11 38 -25 38 -22 0 -25 -29 -8 -81 45 -132 216 -142 265 -14
20 52 15 121 -11 161 -10 15 -49 41 -100 64 -46 21 -88 47 -94 59 -17 30 -13
66 10 95 17 22 29 26 68 26 53 0 73 -15 92 -68 7 -21 17 -32 31 -32 17 0 19 4
13 33 -24 107 -118 159 -201 108z"/>
<path d="M4590 9553 c-63 -8 -116 -15 -116 -16 -1 -1 13 -119 30 -262 30 -253
32 -260 54 -263 21 -3 23 -1 18 30 -8 50 -26 188 -26 202 0 9 23 16 73 20 100
10 105 12 99 42 -4 25 -7 26 -51 20 -25 -4 -65 -9 -87 -12 l-41 -6 -7 59 c-4
32 -9 72 -12 89 l-6 31 59 7 c163 19 150 15 145 47 -2 16 -7 28 -11 28 -3 -1
-58 -8 -121 -16z"/>
<path d="M5624 9531 c-74 -45 -116 -150 -116 -293 -1 -82 2 -103 23 -144 32
-64 68 -89 129 -89 62 0 96 24 133 95 21 41 25 55 15 62 -21 13 -27 10 -48
-31 -25 -51 -55 -71 -103 -71 -31 0 -45 7 -68 31 -35 38 -43 78 -36 183 7 104
23 152 65 193 60 61 150 36 172 -48 8 -29 16 -39 31 -39 19 0 20 4 14 37 -9
50 -29 87 -61 112 -35 27 -107 28 -150 2z"/>
<path d="M5980 9493 c0 -5 -20 -116 -45 -248 -25 -132 -45 -248 -45 -257 0
-11 7 -18 18 -18 16 0 24 33 65 255 26 141 45 260 42 265 -7 12 -35 13 -35 3z"/>
<path d="M4140 9483 c-27 -10 -71 -57 -86 -92 -18 -43 -18 -161 0 -229 21 -76
67 -153 113 -185 75 -54 165 -31 213 54 67 120 -7 387 -123 442 -34 17 -87 21
-117 10z m117 -65 c55 -37 96 -132 101 -234 7 -125 -28 -184 -107 -184 -87 0
-156 103 -168 251 -7 80 8 129 48 164 38 31 82 32 126 3z"/>
<path d="M6170 9456 c0 -3 -32 -118 -71 -256 -38 -139 -69 -253 -67 -255 10
-8 254 -73 260 -69 4 3 8 15 8 28 0 19 -10 25 -85 44 -47 13 -96 27 -109 32
l-24 9 25 88 c14 48 27 89 28 91 2 2 46 -9 100 -23 53 -15 98 -25 100 -23 1 2
6 13 9 25 6 20 1 24 -62 42 -38 12 -83 24 -100 27 -18 4 -32 9 -32 12 0 2 10
40 22 83 13 51 26 79 35 79 8 0 54 -12 103 -26 50 -14 94 -23 99 -20 5 3 11
15 14 26 4 17 -3 22 -51 36 -32 9 -87 24 -123 35 -69 20 -79 22 -79 15z"/>
<path d="M6477 9103 c-71 -176 -95 -249 -88 -256 7 -7 14 -7 20 -1 4 5 41 90
81 189 39 99 75 183 79 188 4 4 13 -97 19 -225 10 -199 14 -235 29 -246 9 -6
20 -9 24 -5 14 15 198 486 193 494 -17 27 -37 -8 -103 -178 -41 -104 -77 -192
-81 -196 -4 -5 -11 49 -15 120 -19 352 -18 345 -40 353 -18 7 -29 -14 -118
-237z"/>
<path d="M3593 9319 c-20 -7 -23 -16 -23 -57 0 -27 -3 -90 -7 -141 l-6 -92
-56 53 c-151 144 -149 142 -172 132 -20 -9 -12 -19 103 -127 l125 -117 40
-102 c22 -56 44 -103 49 -105 5 -1 15 1 22 5 9 6 2 33 -30 111 l-41 104 10
171 c5 94 10 172 9 172 -1 1 -11 -2 -23 -7z"/>
<path d="M3105 9108 c-66 -33 -121 -61 -123 -63 -1 -1 3 -14 9 -28 l12 -26 56
29 57 28 105 -210 c57 -115 107 -212 111 -214 3 -2 13 -1 22 2 12 5 -5 46 -89
215 -58 115 -105 213 -105 219 0 5 23 21 50 35 28 14 50 28 50 31 0 11 -21 44
-28 43 -4 0 -61 -27 -127 -61z"/>
<path d="M7028 9130 c-50 -15 -96 -50 -133 -99 -91 -125 -123 -280 -75 -358
17 -27 80 -63 111 -63 35 0 105 38 134 72 23 27 24 33 12 45 -12 12 -18 10
-46 -16 -92 -86 -199 -36 -187 87 5 60 51 165 96 222 40 50 100 75 146 60 46
-15 64 -45 64 -103 0 -34 4 -49 15 -54 22 -8 27 0 32 54 9 102 -78 181 -169
153z"/>
<path d="M2868 8979 c-14 -8 0 -39 115 -239 72 -127 137 -230 144 -230 6 0 14
4 18 10 4 7 -230 434 -254 462 -3 4 -14 2 -23 -3z"/>
<path d="M7230 8750 c-78 -122 -141 -222 -139 -224 2 -2 54 -36 114 -75 99
-64 111 -69 123 -54 6 9 12 20 12 24 0 4 -43 35 -95 68 l-95 62 38 59 c20 33
44 70 53 82 l17 21 80 -51 c45 -29 85 -52 91 -52 6 0 15 9 20 19 9 16 0 26
-70 71 -44 29 -82 57 -85 61 -8 13 87 149 100 142 6 -4 44 -28 84 -55 92 -62
96 -63 109 -36 10 22 4 27 -94 91 -57 37 -107 67 -112 67 -5 0 -73 -99 -151
-220z"/>
<path d="M2635 8840 c-93 -46 -100 -162 -16 -233 46 -38 70 -42 162 -23 96 19
124 11 152 -46 16 -33 17 -40 3 -72 -28 -68 -112 -86 -168 -37 -27 23 -37 27
-52 19 -17 -9 -16 -12 11 -40 52 -55 123 -74 176 -47 101 52 113 163 28 248
-46 46 -73 51 -173 33 -92 -18 -123 -12 -143 29 -47 90 73 174 148 105 22 -21
28 -22 38 -10 10 12 7 20 -12 41 -24 25 -76 53 -101 53 -7 0 -31 -9 -53 -20z"/>
<path d="M2314 8594 c-21 -15 -61 -45 -89 -67 -27 -23 -51 -42 -53 -43 -2 -1
72 -97 165 -213 145 -181 170 -208 182 -196 10 10 11 18 4 27 -5 7 -38 48 -72
91 -62 77 -63 78 -45 99 31 34 68 48 100 39 16 -5 70 -29 119 -54 81 -40 93
-43 110 -31 10 8 17 16 14 18 -16 16 -184 96 -213 101 -35 7 -35 7 -21 36 20
38 19 65 -6 117 -25 51 -90 102 -129 102 -15 0 -45 -12 -66 -26z m101 -38 c37
-16 65 -60 65 -102 0 -27 -37 -69 -99 -114 l-30 -20 -55 68 c-31 38 -56 73
-56 77 0 10 123 105 137 105 2 0 19 -6 38 -14z"/>
<path d="M4895 8553 c-516 -41 -957 -165 -1383 -388 -952 -501 -1626 -1429
-1801 -2480 -36 -214 -45 -336 -45 -580 0 -457 70 -835 231 -1250 419 -1078
1352 -1877 2485 -2125 251 -55 433 -74 723 -74 339 -1 547 23 852 99 1076 268
1966 1050 2376 2090 106 270 170 520 214 835 25 178 25 673 0 849 -59 420
-155 735 -332 1096 -187 382 -396 669 -702 965 -581 563 -1307 891 -2128 960
-110 9 -394 11 -490 3z m435 -63 c667 -47 1266 -264 1793 -650 213 -156 475
-407 638 -610 845 -1055 985 -2499 359 -3697 -430 -822 -1189 -1440 -2075
-1688 -320 -90 -584 -125 -928 -125 -231 0 -364 10 -573 45 -1311 220 -2393
1218 -2712 2500 -82 328 -97 458 -97 845 1 287 3 342 23 470 99 634 333 1173
718 1655 114 142 369 397 509 509 134 107 353 254 499 335 552 306 1222 455
1846 411z"/>
<path d="M6106 7730 c-286 -60 -596 -153 -806 -242 -119 -50 -299 -144 -454
-236 -129 -78 -178 -94 -203 -69 -58 58 117 284 325 422 95 63 113 82 85 92
-46 18 -535 -207 -800 -367 -553 -335 -932 -760 -1072 -1203 -49 -153 -65
-261 -65 -442 0 -184 12 -248 75 -383 133 -287 371 -442 705 -459 199 -10 371
31 644 157 250 115 411 153 446 105 21 -29 17 -74 -15 -140 -84 -176 -305
-385 -582 -551 -78 -47 -99 -64 -99 -81 0 -21 5 -23 48 -23 52 0 211 38 290
69 150 60 352 180 476 286 37 31 69 55 71 53 3 -2 -3 -27 -12 -56 -13 -41 -14
-55 -5 -64 20 -20 74 16 188 125 56 53 107 97 113 97 8 0 10 -16 5 -52 -7 -58
-7 -55 -5 -80 2 -29 46 -22 79 12 17 16 58 85 92 152 67 132 119 198 158 198
60 0 92 -51 92 -149 0 -84 -14 -144 -73 -318 -70 -209 -58 -217 120 -85 210
156 502 442 643 630 177 236 295 538 319 818 30 348 -80 613 -278 671 -80 23
-196 5 -401 -62 -216 -71 -283 -86 -392 -86 -165 0 -223 53 -221 201 3 233
204 560 566 923 76 77 136 144 134 150 -6 20 -47 17 -191 -13z"/>
<path d="M3855 4070 c-18 -20 -18 -24 14 -133 18 -62 40 -125 50 -142 31 -55
104 -81 406 -146 171 -37 300 -70 332 -85 135 -65 183 -215 170 -534 -7 -169
-17 -212 -62 -257 -28 -28 -40 -33 -81 -33 -99 1 -191 71 -256 197 -20 37 -66
142 -103 233 -36 91 -74 171 -83 178 -10 7 -48 12 -98 12 l-82 0 89 -307 c122
-424 145 -491 187 -563 108 -183 300 -274 608 -287 442 -18 693 110 800 409
19 54 214 726 214 739 0 5 -38 9 -85 9 -77 0 -86 -2 -99 -22 -8 -13 -46 -102
-86 -198 -81 -199 -106 -246 -168 -312 -107 -115 -245 -119 -295 -10 -21 44
-22 62 -22 272 0 204 2 231 22 295 27 86 75 145 146 179 32 16 159 48 331 86
153 33 297 68 320 79 68 30 92 66 127 181 36 119 38 145 16 167 -14 15 -30 14
-169 -10 -204 -35 -388 -55 -651 -71 -190 -11 -221 -15 -245 -33 -49 -36 -51
-53 -51 -553 -1 -473 -2 -490 -37 -490 -7 0 -20 7 -28 16 -14 14 -16 72 -16
491 0 430 -2 478 -17 504 -28 46 -63 56 -233 63 -208 9 -503 40 -678 71 -172
30 -164 30 -187 5z"/>
<path d="M7777 8372 c-203 -137 -227 -156 -214 -169 13 -14 23 -10 82 32 76
55 74 55 154 -18 47 -43 47 -44 0 -139 -25 -49 -27 -58 -13 -69 9 -7 18 -9 24
-3 13 13 230 476 230 491 0 7 -8 16 -17 21 -14 7 -67 -24 -246 -146z m158 -22
c-33 -66 -62 -120 -65 -120 -3 0 -28 20 -55 44 l-50 43 50 34 c27 19 76 55
109 80 34 25 63 44 66 42 2 -2 -23 -58 -55 -123z"/>
<path d="M1970 8291 l-94 -88 20 -25 c11 -14 94 -102 184 -196 l165 -170 100
93 c99 93 99 93 81 114 l-19 21 -84 -82 -84 -81 -55 54 c-87 85 -87 80 -5 163
70 71 71 73 52 90 -19 17 -22 15 -93 -53 l-74 -70 -57 57 c-31 32 -57 63 -57
69 0 6 34 43 76 83 74 70 76 73 58 91 -19 17 -22 16 -114 -70z"/>
<path d="M8170 8257 c-36 -34 -123 -117 -193 -183 -107 -101 -125 -123 -113
-133 12 -10 41 13 168 132 84 80 154 142 155 139 2 -4 -35 -104 -82 -222 -75
-188 -83 -216 -71 -229 16 -16 37 2 295 246 96 91 111 110 99 120 -12 10 -41
-12 -169 -132 -84 -79 -155 -142 -157 -141 -1 2 36 101 83 221 67 169 83 220
74 231 -6 8 -14 14 -18 14 -3 0 -35 -28 -71 -63z"/>
<path d="M1781 8097 c-8 -10 23 -62 129 -215 77 -111 140 -205 140 -208 0 -3
-99 45 -220 107 -203 104 -222 112 -236 97 -15 -15 4 -26 231 -137 137 -67
250 -121 253 -121 3 0 10 8 17 17 11 15 -8 48 -136 239 -81 122 -152 225 -157
228 -6 3 -15 0 -21 -7z"/>
<path d="M8340 7849 c-102 -83 -193 -156 -204 -164 -18 -13 -16 -17 34 -80 63
-80 96 -99 160 -93 60 6 121 36 194 95 107 87 155 182 124 247 -17 35 -106
146 -116 145 -4 0 -90 -68 -192 -150z m218 42 c68 -84 62 -134 -27 -221 -72
-69 -150 -113 -205 -113 -36 0 -45 6 -88 54 -27 29 -47 57 -46 61 5 13 311
256 324 257 6 1 25 -17 42 -38z"/>
<path d="M1501 7746 c-10 -11 28 -43 205 -171 190 -137 219 -154 232 -142 16
17 38 -1 -255 210 -89 64 -163 117 -166 117 -2 0 -10 -6 -16 -14z"/>
<path d="M1399 7604 c-6 -8 -10 -16 -8 -18 2 -2 76 -50 164 -106 88 -56 167
-109 175 -117 13 -14 11 -15 -20 -10 -19 4 -124 18 -233 33 -191 25 -199 25
-212 8 -11 -16 -11 -20 3 -30 147 -98 434 -274 442 -269 24 15 -1 37 -165 140
-128 81 -169 111 -152 113 12 1 117 -11 232 -27 191 -26 211 -27 223 -13 16
22 23 16 -225 175 -178 113 -214 133 -224 121z"/>
<path d="M8915 7426 c-17 -12 -16 -16 11 -65 25 -48 27 -54 12 -65 -8 -6 -99
-61 -202 -121 -171 -100 -202 -124 -177 -139 7 -4 243 127 413 230 3 2 21 -21
38 -51 27 -48 34 -54 51 -45 10 6 19 16 19 22 0 12 -128 236 -140 243 -4 2
-15 -2 -25 -9z"/>
<path d="M1171 7223 c-8 -16 12 -29 156 -103 91 -47 181 -99 199 -116 43 -40
46 -88 8 -133 -45 -53 -82 -46 -292 58 -145 72 -181 87 -186 74 -3 -8 -4 -18
-2 -21 2 -4 86 -47 187 -97 165 -82 187 -90 240 -90 68 0 99 22 125 91 36 94
-11 144 -257 269 -152 77 -169 84 -178 68z"/>
<path d="M8906 6969 c-131 -59 -240 -110 -243 -113 -9 -8 99 -246 111 -246 6
0 17 4 25 9 15 10 12 20 -53 164 l-26 57 87 40 c48 22 90 37 93 33 4 -5 24
-47 45 -95 21 -49 41 -88 45 -88 3 0 14 6 24 13 17 12 15 19 -24 106 -23 51
-40 94 -38 95 18 15 149 67 156 63 5 -4 28 -49 52 -101 40 -89 44 -95 64 -84
11 6 22 12 24 13 2 1 -21 56 -50 122 l-53 120 -239 -108z"/>
<path d="M9125 6650 c-106 -21 -205 -76 -258 -142 -23 -29 -30 -48 -30 -81 0
-80 46 -129 135 -142 57 -9 88 0 88 26 0 16 -7 19 -50 19 -77 0 -103 18 -124
83 -27 84 149 197 308 197 53 0 61 -3 92 -34 48 -48 47 -92 -2 -142 -32 -31
-35 -38 -22 -51 13 -12 19 -11 47 13 42 35 61 74 61 125 0 35 -6 48 -38 79
-54 54 -114 68 -207 50z"/>
<path d="M863 6525 c-3 -9 -4 -17 -2 -19 2 -1 92 -27 199 -56 107 -29 198 -56
203 -60 4 -3 -98 -24 -227 -45 -216 -36 -235 -41 -239 -61 -3 -19 14 -26 252
-92 246 -68 270 -71 271 -41 0 4 -84 30 -187 58 -104 29 -196 55 -206 58 -10
2 -16 7 -14 9 3 3 99 21 213 40 262 43 251 40 257 64 4 16 -2 22 -31 30 -21 5
-134 37 -252 70 -118 33 -219 60 -223 60 -4 0 -10 -7 -14 -15z"/>
<path d="M9165 6211 c-132 -31 -239 -60 -238 -64 7 -31 12 -31 128 -4 65 15
120 25 123 22 3 -2 15 -46 27 -97 26 -108 39 -94 -117 -128 -89 -20 -108 -27
-108 -42 0 -10 6 -18 13 -18 21 -1 517 114 517 120 0 3 -4 11 -9 18 -7 12 -26
10 -110 -9 -55 -12 -104 -19 -107 -16 -8 7 -44 155 -44 178 0 11 26 21 105 39
87 19 105 26 105 41 0 26 -10 25 -285 -40z"/>
<path d="M803 6099 c-18 -5 -40 -21 -50 -35 -17 -26 -58 -213 -48 -222 3 -4
502 -101 523 -102 2 0 2 10 0 22 -3 20 -14 24 -115 42 -123 21 -122 20 -102
88 13 47 38 61 166 91 89 21 97 25 104 50 6 23 5 27 -9 23 -9 -3 -55 -14 -101
-26 -47 -11 -99 -29 -117 -39 l-31 -19 -12 39 c-13 43 -47 72 -106 88 -46 13
-58 13 -102 0z m111 -49 c14 -5 32 -20 41 -34 15 -22 15 -33 4 -100 -10 -61
-16 -76 -30 -76 -22 0 -161 29 -167 35 -10 10 22 137 40 160 21 27 65 33 112
15z"/>
<path d="M9275 5809 c-121 -15 -230 -28 -242 -28 -16 -1 -23 -7 -23 -21 0 -25
-13 -25 225 5 110 13 201 23 203 21 1 -2 -87 -59 -197 -127 -165 -102 -201
-128 -201 -146 0 -13 3 -23 8 -23 4 0 125 14 268 31 242 30 261 33 257 50 -3
11 -10 19 -17 19 -11 0 -297 -35 -369 -45 -22 -3 -36 -2 -33 3 3 5 70 49 148
98 251 155 247 151 241 174 -6 24 10 25 -268 -11z"/>
<path d="M680 5707 c0 -1 -7 -58 -15 -126 -9 -68 -13 -126 -10 -129 3 -4 123
-20 265 -37 l260 -31 5 30 c9 64 25 200 25 223 0 18 -5 23 -25 23 -14 0 -25
-3 -25 -7 -1 -24 -29 -215 -32 -218 -1 -2 -45 2 -96 8 l-93 11 8 70 c13 121
11 141 -14 144 -24 3 -28 -8 -38 -113 -9 -84 -14 -97 -33 -91 -9 2 -48 7 -86
11 l-68 7 6 46 c3 26 9 77 13 115 l6 67 -27 0 c-14 0 -26 -1 -26 -3z"/>
<path d="M9192 5392 c-156 -56 -189 -204 -64 -289 68 -45 217 -56 320 -24 103
32 152 84 152 162 0 61 -31 105 -95 138 -67 35 -232 42 -313 13z m263 -40
c130 -45 121 -194 -15 -232 -117 -34 -240 -19 -299 35 -31 29 -36 39 -36 79 0
36 6 51 26 72 59 59 219 82 324 46z"/>
<path d="M640 5282 c0 -18 10 -20 116 -27 l116 -7 -6 -37 c-3 -20 -6 -64 -6
-98 l0 -63 -110 0 c-91 0 -112 -3 -117 -15 -3 -9 -4 -18 -2 -20 2 -2 124 -7
272 -12 l267 -8 0 23 c0 22 -2 22 -125 22 l-125 0 0 106 0 107 130 -7 c125 -6
130 -6 130 13 0 23 -37 27 -342 36 -191 6 -198 6 -198 -13z"/>
<path d="M9056 4893 c-4 -43 -9 -95 -11 -115 -5 -36 -4 -38 24 -38 l29 0 7 88
c4 48 9 89 10 92 3 5 240 -9 406 -25 57 -5 67 -3 73 11 4 9 5 19 2 21 -4 4
-463 42 -513 43 -19 0 -22 -6 -27 -77z"/>
<path d="M647 4883 c-2 -5 1 -71 7 -148 8 -101 15 -140 24 -139 47 4 45 1 38
63 l-7 60 43 5 c24 3 111 10 193 16 227 15 245 18 245 42 0 18 -5 19 -77 13
-43 -4 -151 -12 -240 -19 l-161 -12 -6 29 c-3 16 -6 45 -6 63 0 29 -3 34 -24
34 -14 0 -27 -3 -29 -7z"/>
<path d="M9179 4650 c-107 -18 -169 -76 -169 -159 0 -82 59 -140 179 -175 64
-19 187 -21 242 -5 52 16 105 62 119 105 36 109 -64 209 -237 234 -75 11 -70
11 -134 0z m234 -73 c65 -30 92 -65 91 -119 -3 -80 -84 -125 -212 -115 -102 8
-148 24 -194 68 -31 30 -38 43 -38 75 0 50 22 81 74 106 60 28 201 21 279 -15z"/>
<path d="M843 4497 c-90 -17 -163 -33 -163 -36 0 -4 4 -12 9 -20 7 -11 37 -9
177 18 179 33 259 38 285 18 42 -32 51 -99 19 -140 -26 -33 -55 -42 -262 -81
-159 -30 -173 -34 -176 -55 -3 -18 0 -21 20 -17 13 3 97 19 188 36 247 47 306
81 304 180 0 52 -24 94 -65 116 -43 22 -154 15 -336 -19z"/>
<path d="M9015 4192 c-97 -47 -128 -130 -84 -232 15 -36 27 -49 47 -54 15 -3
57 -14 94 -25 l68 -20 21 70 c12 39 20 72 18 73 -2 2 -14 6 -26 10 -18 6 -23
1 -38 -44 -17 -50 -18 -51 -48 -44 -81 17 -97 37 -97 118 0 55 26 89 85 111
38 15 53 16 112 5 93 -16 156 -45 198 -91 29 -32 35 -47 35 -83 0 -62 -35
-103 -95 -112 -35 -5 -45 -10 -45 -25 0 -46 136 -10 169 45 68 110 3 222 -167
286 -82 31 -195 37 -247 12z"/>
<path d="M1015 4126 c-91 -29 -174 -85 -200 -137 -21 -40 -19 -108 5 -147 33
-54 95 -76 201 -70 233 14 394 192 282 312 -14 16 -41 34 -59 42 -41 17 -174
17 -229 0z m210 -42 c33 -15 65 -64 65 -99 0 -79 -124 -159 -267 -172 -131
-12 -208 69 -158 168 45 86 264 149 360 103z"/>
<path d="M1241 3728 c-65 -32 -81 -65 -81 -174 0 -83 -2 -92 -24 -113 -31 -30
-90 -31 -118 -3 -12 11 -22 39 -25 63 -4 38 -1 48 22 72 15 15 32 27 36 27 5
0 4 9 -3 19 -11 19 -13 19 -41 3 -68 -40 -93 -132 -50 -190 44 -61 111 -73
192 -34 55 25 71 63 71 165 0 84 1 90 29 118 64 64 161 20 161 -72 0 -50 -13
-75 -50 -98 -26 -15 -28 -20 -17 -35 12 -16 16 -15 56 14 43 31 71 80 71 122
-1 41 -37 106 -69 122 -42 22 -108 20 -160 -6z"/>
<path d="M8819 3740 c-1 -6 -2 -15 -3 -21 -1 -6 45 -30 101 -53 l102 -42 112
-123 c101 -110 114 -121 126 -106 11 16 0 30 -82 118 -52 55 -95 104 -95 109
0 4 58 8 129 8 104 0 133 3 145 16 37 37 19 39 -204 25 -107 -6 -119 -5 -175
17 -33 13 -81 33 -107 43 -27 10 -49 14 -49 9z"/>
<path d="M8042 2948 c-16 -16 -15 -38 3 -81 35 -85 -2 -234 -48 -188 -6 6 -24
11 -39 11 -31 0 -48 -28 -48 -80 0 -21 -6 -29 -24 -34 -50 -12 -33 -85 49
-201 51 -73 53 -75 83 -75 35 0 45 8 76 53 19 28 24 45 19 67 -4 23 -2 30 11
30 20 0 21 -43 1 -125 -8 -33 -14 -73 -15 -88 0 -16 -13 -59 -30 -97 -35 -80
-37 -113 -10 -140 25 -25 33 -25 65 3 21 18 28 38 39 107 17 101 49 228 65
257 6 12 11 31 11 42 0 12 4 21 9 21 5 0 15 15 21 34 12 38 31 51 49 33 8 -8
11 -7 11 5 0 15 19 28 42 28 12 0 7 -25 -17 -90 -20 -54 -37 -68 -47 -37 -6
21 -6 21 -7 -3 0 -14 3 -32 9 -40 5 -8 5 -19 1 -25 -5 -5 -20 -46 -35 -91 -15
-45 -40 -102 -56 -128 -34 -53 -35 -56 -17 -56 32 0 121 134 162 242 9 26 26
55 36 64 18 16 19 16 19 -22 0 -21 -10 -67 -22 -101 l-22 -63 22 -23 c12 -13
22 -29 22 -36 0 -18 -52 -85 -129 -163 -52 -55 -61 -68 -45 -68 29 0 87 40
164 114 36 35 77 71 93 81 26 17 28 17 47 0 27 -25 34 -67 16 -109 -8 -20 -11
-36 -6 -36 5 0 15 -12 22 -27 12 -24 19 -28 53 -26 21 2 49 10 63 19 23 15 24
21 19 73 -3 40 -15 73 -40 116 -57 97 -58 91 41 165 97 74 109 96 69 139 -13
14 -27 34 -30 44 -4 9 -11 17 -18 17 -6 0 -49 -40 -96 -90 -118 -124 -137
-121 -148 25 -11 144 -32 183 -84 156 -51 -28 -55 4 -8 74 44 67 61 109 53
140 -9 33 -25 32 -78 -9 -38 -29 -49 -46 -73 -113 -40 -113 -74 -178 -87 -165
-8 8 -6 31 6 79 16 61 33 165 39 233 2 24 0 25 -45 23 -51 -3 -57 6 -39 52 12
28 -5 45 -44 45 -24 0 -34 6 -43 25 -12 27 -40 33 -60 13z m128 -337 c0 -10
-7 -24 -15 -31 -20 -17 -31 10 -15 39 12 24 30 19 30 -8z"/>
<path d="M1688 2781 c-21 -18 -22 -19 -4 -46 17 -26 70 -55 211 -112 53 -22
70 -33 70 -48 0 -39 -117 -75 -166 -52 -9 5 -30 -2 -54 -19 -47 -32 -158 -54
-294 -58 -78 -2 -96 -6 -108 -21 -21 -30 -16 -63 13 -81 24 -16 28 -16 71 5
100 48 272 52 297 6 5 -11 18 -32 28 -47 13 -20 15 -28 5 -36 -19 -16 -158
-26 -188 -14 -42 17 -63 -5 -57 -55 11 -76 26 -94 111 -128 43 -17 87 -39 98
-49 20 -17 20 -18 3 -37 -12 -14 -28 -19 -48 -17 -27 3 -31 0 -38 -32 -6 -30
-3 -39 18 -60 l25 -25 27 31 c15 17 38 45 52 63 24 30 27 31 83 25 50 -6 58
-10 63 -31 4 -16 -2 -35 -20 -61 -14 -21 -26 -46 -26 -56 0 -21 38 -86 50 -86
16 0 49 36 116 125 37 50 106 134 153 188 151 172 221 259 221 275 0 21 -47
99 -67 110 -9 5 -64 7 -123 4 -178 -8 -230 14 -119 51 35 12 83 18 136 18 108
0 117 8 113 94 -1 34 5 47 34 77 42 43 44 58 14 93 l-23 26 -90 -63 -90 -63
-70 2 c-71 1 -184 31 -280 73 -109 48 -122 51 -147 31z m388 -422 c10 -17 -7
-28 -85 -54 -114 -39 -148 -32 -115 24 19 32 34 37 136 39 32 1 60 -3 64 -9z
m94 -112 c0 -8 -17 -37 -37 -65 -101 -137 -177 -231 -190 -236 -24 -10 -35 4
-28 36 5 21 2 35 -10 48 -24 27 -16 41 52 87 52 36 58 43 58 76 1 20 4 39 8
43 4 4 35 10 69 14 35 4 66 8 71 9 4 0 7 -5 7 -12z m-339 -114 c21 -21 -8 -43
-55 -43 -49 1 -138 31 -144 49 -6 17 181 12 199 -6z"/>
<path d="M7152 2044 c-32 -22 -29 -70 10 -130 17 -27 45 -78 62 -114 27 -57
31 -76 31 -150 0 -68 -4 -93 -22 -125 -32 -60 -93 -125 -198 -210 -101 -83
-120 -112 -90 -145 58 -64 157 -10 267 145 96 133 144 118 106 -32 -11 -47
-16 -53 -213 -262 -27 -29 -41 -49 -30 -43 11 5 47 15 79 21 33 6 79 22 103
37 50 29 122 115 160 192 28 56 27 45 7 282 l-6 75 86 179 c91 189 92 196 44
230 -12 9 -37 16 -55 16 -35 0 -113 -27 -113 -40 0 -4 9 -19 20 -33 25 -31 25
-37 -1 -108 -45 -123 -68 -101 -99 91 -11 62 -18 80 -45 107 -36 36 -68 42
-103 17z"/>
<path d="M3053 1945 c-37 -16 -63 -60 -63 -107 0 -28 14 -47 96 -130 53 -55
107 -101 121 -104 38 -10 76 15 90 59 11 33 10 46 -9 103 -19 59 -29 73 -90
125 -38 32 -73 59 -77 59 -5 0 -15 2 -23 5 -7 2 -27 -2 -45 -10z"/>
<path d="M2443 1744 c-7 -3 -13 -17 -13 -30 0 -21 11 -30 63 -54 68 -33 265
-77 395 -90 46 -5 86 -11 90 -14 10 -11 -15 -28 -70 -49 -47 -18 -78 -21 -273
-22 l-220 -2 -13 -34 c-14 -33 -13 -34 20 -62 53 -46 106 -69 139 -62 48 11
69 -2 69 -41 0 -43 32 -109 65 -130 21 -14 34 -14 102 -3 43 6 103 22 133 34
30 12 85 32 122 44 79 26 115 52 134 98 13 31 12 37 -11 83 -14 27 -25 56 -25
65 0 31 52 12 141 -52 51 -37 84 -40 103 -11 22 35 -14 69 -146 135 -97 50
-132 63 -169 63 -48 0 -92 11 -344 84 -150 44 -263 63 -292 50z m605 -351 c-5
-27 -124 -83 -176 -83 -52 0 -98 26 -81 46 8 10 27 12 68 9 45 -4 67 0 111 19
67 30 82 31 78 9z"/>
<path d="M4596 1592 c-3 -20 -6 -62 -6 -93 0 -130 -89 -419 -129 -419 -21 0
-18 42 6 70 33 39 29 81 -10 94 -26 9 -32 5 -100 -62 -40 -40 -80 -72 -88 -72
-22 0 -45 80 -31 107 7 12 8 48 3 98 -8 88 -28 115 -85 115 -46 0 -87 -30
-151 -110 -31 -39 -89 -98 -128 -130 -40 -32 -83 -68 -97 -79 l-25 -21 26 6
c15 3 30 1 33 -5 10 -16 97 -13 146 4 23 8 51 15 62 15 18 0 16 -4 -13 -37
-40 -47 -65 -62 -104 -63 -17 0 -62 -15 -100 -33 -111 -54 -167 -69 -200 -57
-35 13 -65 -10 -65 -50 0 -78 77 -68 303 37 130 61 162 64 130 12 -23 -36 -82
-99 -92 -99 -10 0 -41 -67 -41 -90 0 -40 74 -66 100 -35 22 26 37 16 49 -30 9
-34 18 -48 37 -55 40 -15 57 1 88 87 89 244 105 277 153 324 49 47 92 79 105
79 26 0 -36 -150 -89 -213 -56 -69 -10 -122 63 -74 22 14 48 27 59 29 32 5 30
-48 -4 -173 -17 -60 -31 -117 -31 -125 0 -8 -15 -49 -34 -90 -49 -106 -50
-126 -6 -149 69 -36 96 3 105 150 5 87 13 127 37 190 19 51 32 106 35 155 3
41 11 85 19 97 7 11 48 40 91 64 123 67 162 120 132 175 -18 35 -50 28 -61
-13 -8 -33 -57 -78 -132 -123 l-39 -24 7 54 c8 57 18 83 46 115 43 48 100 247
100 344 0 28 -42 125 -58 135 -5 3 -12 -11 -16 -32z m-146 -596 c0 -16 -21
-56 -30 -56 -11 0 -14 43 -3 53 7 8 33 10 33 3z"/>
<path d="M7710 1621 c-14 -5 -58 -25 -98 -45 -119 -62 -189 -162 -129 -185 12
-5 110 -10 217 -12 l195 -4 12 38 c17 51 4 80 -70 157 -60 61 -74 67 -127 51z"/>
<path d="M5927 1404 c-19 -10 -26 -21 -23 -32 10 -32 26 -147 26 -184 0 -32
-8 -44 -77 -108 -84 -78 -89 -100 -23 -105 29 -3 40 3 71 37 l36 40 7 -32 c3
-18 6 -50 6 -71 0 -34 -5 -43 -41 -68 -22 -16 -53 -33 -70 -36 -16 -4 -29 -10
-29 -15 0 -8 84 -43 135 -56 33 -8 39 -19 25 -45 -22 -40 -69 -50 -176 -39
-54 6 -99 12 -101 13 -8 9 -25 160 -19 180 3 13 25 48 48 78 l43 54 -48 -39
c-27 -21 -50 -37 -52 -35 -2 2 -5 26 -7 53 l-3 49 47 24 c54 27 79 59 53 69
-9 4 -36 4 -61 1 -24 -2 -47 0 -50 5 -3 5 -7 43 -8 86 -2 77 -2 77 -37 94 -65
34 -147 12 -136 -36 61 -245 61 -234 -9 -288 -31 -24 -73 -53 -94 -66 -38 -22
-38 -23 -23 -52 17 -35 61 -41 84 -13 8 9 34 29 59 45 41 26 45 27 52 11 3
-10 7 -40 7 -68 0 -49 -1 -52 -94 -157 -52 -59 -95 -114 -95 -123 0 -22 38
-75 54 -75 19 0 41 30 61 82 10 27 21 48 24 48 4 0 24 -17 44 -38 26 -27 37
-47 37 -68 0 -36 25 -74 49 -74 10 0 27 10 38 22 40 44 46 67 39 146 l-7 74
33 -7 c59 -13 153 -53 151 -63 -3 -13 59 -32 103 -32 24 0 40 9 62 34 17 19
33 44 37 56 8 25 2 26 135 -26 106 -40 200 -55 225 -34 9 8 22 28 29 45 9 20
31 42 61 59 43 26 46 29 31 44 -12 12 -49 18 -163 24 -82 4 -167 10 -190 13
l-43 6 52 98 c52 97 52 98 35 124 -21 33 -39 33 -106 6 -28 -12 -54 -19 -57
-16 -4 3 -7 30 -8 59 l-1 53 92 46 c135 68 141 75 102 131 -19 26 -26 29 -57
23 -19 -3 -59 -17 -88 -30 -60 -26 -57 -29 -69 53 -10 61 -64 81 -128 46z
m128 -546 c-26 -39 -28 -40 -68 -34 -23 4 -43 9 -45 11 -9 9 12 26 71 59 73
42 86 30 42 -36z m-481 -185 c4 -29 3 -53 -2 -53 -21 0 -72 23 -72 32 0 6 12
33 27 60 30 56 35 52 47 -39z"/>
</g>
</svg>
